<svg width="21" height="19" viewBox="0 0 21 19" fill="none" xmlns="http://www.w3.org/2000/svg">
<path d="M2 14V2V7.3V7V14ZM2 16C1.45 16 0.979333 15.8043 0.588 15.413C0.196667 15.0217 0.000666667 14.5507 0 14V2C0 1.45 0.196 0.979333 0.588 0.588C0.98 0.196666 1.45067 0.000666667 2 0H7.175C7.44167 0 7.696 0.0500001 7.938 0.15C8.18 0.25 8.39233 0.391666 8.575 0.575L10 2H18C18.55 2 19.021 2.196 19.413 2.588C19.805 2.98 20.0007 3.45067 20 4V6.775C20 7.05833 19.904 7.296 19.712 7.488C19.52 7.68 19.2827 7.77567 19 7.775C18.7173 7.77433 18.48 7.67833 18.288 7.487C18.096 7.29567 18 7.05833 18 6.775V4H10C9.73333 4 9.479 3.95 9.237 3.85C8.995 3.75 8.78267 3.60833 8.6 3.425L7.175 2H2V14H8.15C8.43333 14 8.671 14.096 8.863 14.288C9.055 14.48 9.15067 14.7173 9.15 15C9.14933 15.2827 9.05333 15.5203 8.862 15.713C8.67067 15.9057 8.43333 16.0013 8.15 16H2ZM15.275 14.125L14.825 13.675C14.675 13.525 14.5 13.454 14.3 13.462C14.1 13.47 13.925 13.5493 13.775 13.7C13.625 13.8507 13.55 14.0257 13.55 14.225C13.55 14.4243 13.625 14.5993 13.775 14.75L14.575 15.55C14.775 15.75 15.0083 15.85 15.275 15.85C15.5417 15.85 15.775 15.75 15.975 15.55L18.225 13.325C18.375 13.175 18.45 12.996 18.45 12.788C18.45 12.58 18.375 12.4007 18.225 12.25C18.075 12.0993 17.9 12.0283 17.7 12.037C17.5 12.0457 17.325 12.1167 17.175 12.25L15.275 14.125ZM16 9C17.3833 9 18.5627 9.48767 19.538 10.463C20.5133 11.4383 21.0007 12.6173 21 14C20.9993 15.3827 20.5117 16.562 19.537 17.538C18.5623 18.514 17.3833 19.0013 16 19C14.6167 18.9987 13.4377 18.511 12.463 17.537C11.4883 16.563 11.0007 15.384 11 14C10.9993 12.616 11.487 11.437 12.463 10.463C13.439 9.489 14.618 9.00133 16 9Z" fill="#D1D5DB"/>
</svg>
