<svg width="18" height="16" viewBox="0 0 18 16" fill="none" xmlns="http://www.w3.org/2000/svg">
<path d="M0.292969 2.70547C-0.0976562 2.31484 -0.0976562 1.68359 0.292969 1.29297C0.683594 0.902344 1.31797 0.902344 1.70859 1.29297L7.70859 7.29297C8.09922 7.68359 8.09922 8.31797 7.70859 8.70859L1.70859 14.7086C1.31797 15.0992 0.683594 15.0992 0.292969 14.7086C-0.0976562 14.318 -0.0976562 13.6836 0.292969 13.293L5.58359 7.99922L0.292969 2.70547ZM7.99922 12.9992H16.9992C17.5523 12.9992 17.9992 13.4461 17.9992 13.9992C17.9992 14.5523 17.5523 14.9992 16.9992 14.9992H7.99922C7.44609 14.9992 6.99922 14.5523 6.99922 13.9992C6.99922 13.4461 7.44609 12.9992 7.99922 12.9992Z" fill="#6DA2FF"/>
</svg>
