<svg width="18" height="14" viewBox="0 0 18 14" fill="none" xmlns="http://www.w3.org/2000/svg">
<path d="M0.292969 1.70547C-0.0976562 1.31484 -0.0976562 0.683594 0.292969 0.292969C0.683594 -0.0976562 1.31797 -0.0976562 1.70859 0.292969L7.70859 6.29297C8.09922 6.68359 8.09922 7.31797 7.70859 7.70859L1.70859 13.7086C1.31797 14.0992 0.683594 14.0992 0.292969 13.7086C-0.0976562 13.318 -0.0976562 12.6836 0.292969 12.293L5.58359 6.99922L0.292969 1.70547ZM7.99922 11.9992H16.9992C17.5523 11.9992 17.9992 12.4461 17.9992 12.9992C17.9992 13.5523 17.5523 13.9992 16.9992 13.9992H7.99922C7.44609 13.9992 6.99922 13.5523 6.99922 12.9992C6.99922 12.4461 7.44609 11.9992 7.99922 11.9992Z" fill="#A9B0BF"/>
</svg>
