<svg width="14" height="16" viewBox="0 0 14 16" fill="none" xmlns="http://www.w3.org/2000/svg">
<g clip-path="url(#clip0_48_41)">
<path d="M2.5 3.25C2.69891 3.25 2.88968 3.17098 3.03033 3.03033C3.17098 2.88968 3.25 2.69891 3.25 2.5C3.25 2.30109 3.17098 2.11032 3.03033 1.96967C2.88968 1.82902 2.69891 1.75 2.5 1.75C2.30109 1.75 2.11032 1.82902 1.96967 1.96967C1.82902 2.11032 1.75 2.30109 1.75 2.5C1.75 2.69891 1.82902 2.88968 1.96967 3.03033C2.11032 3.17098 2.30109 3.25 2.5 3.25ZM5 2.5C5 3.525 4.38437 4.40625 3.5 4.79063V7.53438C4.0875 7.19375 4.77188 7 5.5 7H8.5C9.60312 7 10.5 6.10312 10.5 5V4.79063C9.61563 4.40625 9 3.525 9 2.5C9 1.11875 10.1187 0 11.5 0C12.8813 0 14 1.11875 14 2.5C14 3.525 13.3844 4.40625 12.5 4.79063V5C12.5 7.20937 10.7094 9 8.5 9H5.5C4.39688 9 3.5 9.89688 3.5 11V11.2094C4.38437 11.5938 5 12.475 5 13.5C5 14.8813 3.88125 16 2.5 16C1.11875 16 0 14.8813 0 13.5C0 12.475 0.615625 11.5938 1.5 11.2094V11V4.79063C0.615625 4.40625 0 3.525 0 2.5C0 1.11875 1.11875 0 2.5 0C3.88125 0 5 1.11875 5 2.5ZM12.25 2.5C12.25 2.30109 12.171 2.11032 12.0303 1.96967C11.8897 1.82902 11.6989 1.75 11.5 1.75C11.3011 1.75 11.1103 1.82902 10.9697 1.96967C10.829 2.11032 10.75 2.30109 10.75 2.5C10.75 2.69891 10.829 2.88968 10.9697 3.03033C11.1103 3.17098 11.3011 3.25 11.5 3.25C11.6989 3.25 11.8897 3.17098 12.0303 3.03033C12.171 2.88968 12.25 2.69891 12.25 2.5ZM2.5 14.25C2.69891 14.25 2.88968 14.171 3.03033 14.0303C3.17098 13.8897 3.25 13.6989 3.25 13.5C3.25 13.3011 3.17098 13.1103 3.03033 12.9697C2.88968 12.829 2.69891 12.75 2.5 12.75C2.30109 12.75 2.11032 12.829 1.96967 12.9697C1.82902 13.1103 1.75 13.3011 1.75 13.5C1.75 13.6989 1.82902 13.8897 1.96967 14.0303C2.11032 14.171 2.30109 14.25 2.5 14.25Z" fill="#A9B0BF"/>
</g>
<defs>
<clipPath id="clip0_48_41">
<path d="M0 0H14V16H0V0Z" fill="white"/>
</clipPath>
</defs>
</svg>
