<svg width="22" height="21" viewBox="0 0 22 21" fill="none" xmlns="http://www.w3.org/2000/svg">
<path d="M0.75 10.25C0.75 6.479 0.75 4.593 1.922 3.422C3.094 2.251 4.979 2.25 8.75 2.25H12.75C16.521 2.25 18.407 2.25 19.578 3.422C20.749 4.594 20.75 6.479 20.75 10.25V12.25C20.75 16.021 20.75 17.907 19.578 19.078C18.406 20.249 16.521 20.25 12.75 20.25H8.75C4.979 20.25 3.093 20.25 1.922 19.078C0.751 17.906 0.75 16.021 0.75 12.25V10.25Z" stroke="#6EA1FF" stroke-width="1.5"/>
<path d="M5.75 2.25V0.75M15.75 2.25V0.75M1.25 7.25H20.25" stroke="#6EA1FF" stroke-width="1.5" stroke-linecap="round"/>
<path d="M5.75 15.25C5.88261 15.25 6.00975 15.3027 6.10352 15.3965C6.19728 15.4903 6.25 15.6174 6.25 15.75C6.25 15.8826 6.19728 16.0097 6.10352 16.1035C6.00975 16.1973 5.88261 16.25 5.75 16.25C5.61739 16.25 5.49025 16.1973 5.39648 16.1035C5.30272 16.0097 5.25 15.8826 5.25 15.75C5.25 15.6174 5.30272 15.4903 5.39648 15.3965C5.49025 15.3027 5.61739 15.25 5.75 15.25ZM10.75 15.25C10.8826 15.25 11.0097 15.3027 11.1035 15.3965C11.1973 15.4903 11.25 15.6174 11.25 15.75C11.25 15.8826 11.1973 16.0097 11.1035 16.1035C11.0097 16.1973 10.8826 16.25 10.75 16.25C10.6174 16.25 10.4903 16.1973 10.3965 16.1035C10.3027 16.0097 10.25 15.8826 10.25 15.75C10.25 15.6174 10.3027 15.4903 10.3965 15.3965C10.4903 15.3027 10.6174 15.25 10.75 15.25ZM15.75 15.25C15.8826 15.25 16.0097 15.3027 16.1035 15.3965C16.1973 15.4903 16.25 15.6174 16.25 15.75C16.25 15.8826 16.1973 16.0097 16.1035 16.1035C16.0097 16.1973 15.8826 16.25 15.75 16.25C15.6174 16.25 15.4903 16.1973 15.3965 16.1035C15.3027 16.0097 15.25 15.8826 15.25 15.75C15.25 15.6174 15.3027 15.4903 15.3965 15.3965C15.4903 15.3027 15.6174 15.25 15.75 15.25ZM5.75 11.25C5.88261 11.25 6.00975 11.3027 6.10352 11.3965C6.19728 11.4903 6.25 11.6174 6.25 11.75C6.25 11.8826 6.19728 12.0097 6.10352 12.1035C6.00975 12.1973 5.88261 12.25 5.75 12.25C5.61739 12.25 5.49025 12.1973 5.39648 12.1035C5.30272 12.0097 5.25 11.8826 5.25 11.75C5.25 11.6174 5.30272 11.4903 5.39648 11.3965C5.49025 11.3027 5.61739 11.25 5.75 11.25ZM10.75 11.25C10.8826 11.25 11.0097 11.3027 11.1035 11.3965C11.1973 11.4903 11.25 11.6174 11.25 11.75C11.25 11.8826 11.1973 12.0097 11.1035 12.1035C11.0097 12.1973 10.8826 12.25 10.75 12.25C10.6174 12.25 10.4903 12.1973 10.3965 12.1035C10.3027 12.0097 10.25 11.8826 10.25 11.75C10.25 11.6174 10.3027 11.4903 10.3965 11.3965C10.4903 11.3027 10.6174 11.25 10.75 11.25ZM15.75 11.25C15.8826 11.25 16.0097 11.3027 16.1035 11.3965C16.1973 11.4903 16.25 11.6174 16.25 11.75C16.25 11.8826 16.1973 12.0097 16.1035 12.1035C16.0097 12.1973 15.8826 12.25 15.75 12.25C15.6174 12.25 15.4903 12.1973 15.3965 12.1035C15.3027 12.0097 15.25 11.8826 15.25 11.75C15.25 11.6174 15.3027 11.4903 15.3965 11.3965C15.4903 11.3027 15.6174 11.25 15.75 11.25Z" stroke="#6EA1FF"/>
</svg>
